<?xml version="1.0" encoding="iso-8859-1"?>
<!-- Generator: Adobe Illustrator 19.0.0, SVG Export Plug-In . SVG Version: 6.00 Build 0)  -->
<svg version="1.1" id="Capa_1" xmlns="http://www.w3.org/2000/svg" xmlns:xlink="http://www.w3.org/1999/xlink" x="0px" y="0px"
	 viewBox="0 0 425 425" style="enable-background:new 0 0 425 425;" xml:space="preserve">
<g id="XMLID_41_">
	<path id="XMLID_42_" d="M285.877,367.5C336.483,334.452,370,277.32,370,212.5c0-102.009-82.99-185-185-185S0,110.491,0,212.5
		s82.99,185,185,185h240v-30H285.877z M185,167.5c-24.814,0-45-20.187-45-45s20.186-45,45-45s45,20.187,45,45
		S209.814,167.5,185,167.5z M275,167.5c24.814,0,45,20.187,45,45s-20.186,45-45,45s-45-20.187-45-45S250.186,167.5,275,167.5z
		 M140,212.5c0,24.813-20.187,45-45,45s-45-20.187-45-45s20.187-45,45-45S140,187.687,140,212.5z M185,257.5
		c24.814,0,45,20.187,45,45s-20.186,45-45,45s-45-20.187-45-45S160.186,257.5,185,257.5z"/>
</g>
<g>
</g>
<g>
</g>
<g>
</g>
<g>
</g>
<g>
</g>
<g>
</g>
<g>
</g>
<g>
</g>
<g>
</g>
<g>
</g>
<g>
</g>
<g>
</g>
<g>
</g>
<g>
</g>
<g>
</g>
</svg>
